<?xml version="1.0" encoding="UTF-8" standalone="no" ?>
<!DOCTYPE svg PUBLIC "-//W3C//DTD SVG 1.1//EN" "http://www.w3.org/Graphics/SVG/1.1/DTD/svg11.dtd">
<svg xmlns="http://www.w3.org/2000/svg" xmlns:xlink="http://www.w3.org/1999/xlink" version="1.1" width="1080" height="1080" viewBox="0 0 1080 1080" xml:space="preserve">
<desc>Created with Fabric.js 4.2.0</desc>
<defs>
</defs>
<g transform="matrix(1 0 0 1 540 540)" id="70ecaa10-ae35-4b76-8c57-857507485f8f"  >
<rect style="stroke: none; stroke-width: 1; stroke-dasharray: none; stroke-linecap: butt; stroke-dashoffset: 0; stroke-linejoin: miter; stroke-miterlimit: 4; fill: rgb(255,255,255); fill-rule: nonzero; opacity: 1;" vector-effect="non-scaling-stroke"  x="-540" y="-540" rx="0" ry="0" width="1080" height="1080" />
</g>
<g transform="matrix(1 0 0 1 540 540)" id="de2063dc-96b6-44ea-bd02-c6d28157669b"  >
</g>
<g transform="matrix(32.91 0 0 32.91 540 540)" id="dfe0a5af-5efd-4971-bb5c-9c9fa4004f5d"  >
<path style="stroke: rgb(0,0,0); stroke-width: 0; stroke-dasharray: none; stroke-linecap: butt; stroke-dashoffset: 0; stroke-linejoin: miter; stroke-miterlimit: 4; fill: rgb(14,152,136); fill-rule: nonzero; opacity: 1;" vector-effect="non-scaling-stroke"  transform=" translate(-6.56, -7.5)" d="M 11.7188 1.875 L 10.3125 1.875 L 10.3125 0.351562 C 10.3125 0.158203 10.1543 0 9.96094 0 L 9.72656 0 C 9.5332 0 9.375 0.158203 9.375 0.351562 L 9.375 1.875 L 3.75 1.875 L 3.75 0.351562 C 3.75 0.158203 3.5918 0 3.39844 0 L 3.16406 0 C 2.9707 0 2.8125 0.158203 2.8125 0.351562 L 2.8125 1.875 L 1.40625 1.875 C 0.629883 1.875 0 2.50488 0 3.28125 L 0 13.5938 C 0 14.3701 0.629883 15 1.40625 15 L 11.7188 15 C 12.4951 15 13.125 14.3701 13.125 13.5938 L 13.125 3.28125 C 13.125 2.50488 12.4951 1.875 11.7188 1.875 Z M 1.40625 2.8125 L 11.7188 2.8125 C 11.9766 2.8125 12.1875 3.02344 12.1875 3.28125 L 12.1875 4.6875 L 0.9375 4.6875 L 0.9375 3.28125 C 0.9375 3.02344 1.14844 2.8125 1.40625 2.8125 Z M 11.7188 14.0625 L 1.40625 14.0625 C 1.14844 14.0625 0.9375 13.8516 0.9375 13.5938 L 0.9375 5.625 L 12.1875 5.625 L 12.1875 13.5938 C 12.1875 13.8516 11.9766 14.0625 11.7188 14.0625 Z M 7.49121 7.90137 L 8.50488 8.91504 C 8.56641 8.97656 8.56641 9.07324 8.50488 9.13184 L 4.66113 12.9756 L 3.63281 13.1221 C 3.43066 13.1514 3.25488 12.9785 3.28418 12.7734 L 3.43066 11.7451 L 7.27441 7.90137 C 7.33301 7.84277 7.43262 7.84277 7.49121 7.90137 Z M 9.69434 7.94238 L 9.13184 8.50488 C 9.07031 8.56641 8.97363 8.56641 8.91504 8.50488 L 7.90137 7.49121 C 7.83984 7.42969 7.83984 7.33301 7.90137 7.27441 L 8.46387 6.71191 C 8.66309 6.5127 8.98828 6.5127 9.1875 6.71191 L 9.69434 7.21875 C 9.89355 7.41797 9.89355 7.74316 9.69434 7.94238 Z" stroke-linecap="round" />
</g>
</svg>