<?xml version="1.0" encoding="UTF-8" standalone="no" ?>
<!DOCTYPE svg PUBLIC "-//W3C//DTD SVG 1.1//EN" "http://www.w3.org/Graphics/SVG/1.1/DTD/svg11.dtd">
<svg xmlns="http://www.w3.org/2000/svg" xmlns:xlink="http://www.w3.org/1999/xlink" version="1.1" width="1080" height="1080" viewBox="0 0 1080 1080" xml:space="preserve">
<desc>Created with Fabric.js 4.2.0</desc>
<defs>
</defs>
<rect x="0" y="0" width="100%" height="100%" fill="transparent"></rect>
<g transform="matrix(1 0 0 1 540 540)" id="70ecaa10-ae35-4b76-8c57-857507485f8f"  >
<rect style="stroke: none; stroke-width: 1; stroke-dasharray: none; stroke-linecap: butt; stroke-dashoffset: 0; stroke-linejoin: miter; stroke-miterlimit: 4; fill: rgb(255,255,255); fill-rule: nonzero; opacity: 1;" vector-effect="non-scaling-stroke"  x="-540" y="-540" rx="0" ry="0" width="1080" height="1080" />
</g>
<g transform="matrix(1 0 0 1 540 540)" id="de2063dc-96b6-44ea-bd02-c6d28157669b"  >
</g>
<g transform="matrix(32.91 0 0 32.91 540 540)" id="1d6771a1-8231-48f2-97f4-ae2b428c01eb"  >
<path style="stroke: rgb(0,0,0); stroke-width: 0; stroke-dasharray: none; stroke-linecap: butt; stroke-dashoffset: 0; stroke-linejoin: miter; stroke-miterlimit: 4; fill: rgb(14,152,136); fill-rule: nonzero; opacity: 1;" vector-effect="non-scaling-stroke"  transform=" translate(-6.56, -7.5)" d="M 11.7188 1.875 L 10.3125 1.875 L 10.3125 0.351562 C 10.3125 0.158203 10.1543 0 9.96094 0 L 9.72656 0 C 9.5332 0 9.375 0.158203 9.375 0.351562 L 9.375 1.875 L 3.75 1.875 L 3.75 0.351562 C 3.75 0.158203 3.5918 0 3.39844 0 L 3.16406 0 C 2.9707 0 2.8125 0.158203 2.8125 0.351562 L 2.8125 1.875 L 1.40625 1.875 C 0.629883 1.875 0 2.50488 0 3.28125 L 0 13.5938 C 0 14.3701 0.629883 15 1.40625 15 L 11.7188 15 C 12.4951 15 13.125 14.3701 13.125 13.5938 L 13.125 3.28125 C 13.125 2.50488 12.4951 1.875 11.7188 1.875 Z M 1.40625 2.8125 L 11.7188 2.8125 C 11.9766 2.8125 12.1875 3.02344 12.1875 3.28125 L 12.1875 4.6875 L 0.9375 4.6875 L 0.9375 3.28125 C 0.9375 3.02344 1.14844 2.8125 1.40625 2.8125 Z M 11.7188 14.0625 L 1.40625 14.0625 C 1.14844 14.0625 0.9375 13.8516 0.9375 13.5938 L 0.9375 5.625 L 12.1875 5.625 L 12.1875 13.5938 C 12.1875 13.8516 11.9766 14.0625 11.7188 14.0625 Z M 9.02344 10.3125 L 4.10156 10.3125 C 3.9082 10.3125 3.75 10.1543 3.75 9.96094 L 3.75 9.72656 C 3.75 9.5332 3.9082 9.375 4.10156 9.375 L 9.02344 9.375 C 9.2168 9.375 9.375 9.5332 9.375 9.72656 L 9.375 9.96094 C 9.375 10.1543 9.2168 10.3125 9.02344 10.3125 Z" stroke-linecap="round" />
</g>
</svg>