<?xml version="1.0" encoding="UTF-8" standalone="no" ?>
<!DOCTYPE svg PUBLIC "-//W3C//DTD SVG 1.1//EN" "http://www.w3.org/Graphics/SVG/1.1/DTD/svg11.dtd">
<svg xmlns="http://www.w3.org/2000/svg" xmlns:xlink="http://www.w3.org/1999/xlink" version="1.1" width="1080" height="1080" viewBox="0 0 1080 1080" xml:space="preserve">
<desc>Created with Fabric.js 4.2.0</desc>
<defs>
</defs>
<rect x="0" y="0" width="100%" height="100%" fill="transparent"></rect>
<g transform="matrix(1 0 0 1 540 540)" id="70ecaa10-ae35-4b76-8c57-857507485f8f"  >
<rect style="stroke: none; stroke-width: 1; stroke-dasharray: none; stroke-linecap: butt; stroke-dashoffset: 0; stroke-linejoin: miter; stroke-miterlimit: 4; fill: rgb(255,255,255); fill-rule: nonzero; opacity: 1;" vector-effect="non-scaling-stroke"  x="-540" y="-540" rx="0" ry="0" width="1080" height="1080" />
</g>
<g transform="matrix(1 0 0 1 540 540)" id="de2063dc-96b6-44ea-bd02-c6d28157669b"  >
</g>
<g transform="matrix(32.91 0 0 32.91 540 540)" id="12a4a7ae-8540-43c9-978f-c2a00501eded"  >
<path style="stroke: rgb(0,0,0); stroke-width: 0; stroke-dasharray: none; stroke-linecap: butt; stroke-dashoffset: 0; stroke-linejoin: miter; stroke-miterlimit: 4; fill: rgb(144,144,140); fill-rule: nonzero; opacity: 1;" vector-effect="non-scaling-stroke"  transform=" translate(-6.56, -7.5)" d="M 4.38867 10.8105 L 4.15723 12.167 C 4.10449 12.4775 4.23047 12.7852 4.48535 12.9697 C 4.62891 13.0723 4.79883 13.1279 4.96582 13.1279 C 5.09473 13.1279 5.22656 13.0957 5.34668 13.0312 L 6.5625 12.3926 L 7.77832 13.0312 C 8.05664 13.1777 8.3877 13.1543 8.64258 12.9697 C 8.89746 12.7852 9.02344 12.4775 8.9707 12.167 L 8.73926 10.8105 L 9.7207 9.85254 C 9.94629 9.63281 10.0254 9.31055 9.92871 9.01172 C 9.83203 8.71289 9.57715 8.49902 9.2666 8.45508 L 7.90723 8.25586 L 7.30078 7.02246 C 7.15723 6.73828 6.87598 6.5625 6.5625 6.5625 C 6.24902 6.5625 5.96777 6.73828 5.83008 7.01953 L 5.22363 8.25293 L 3.86426 8.45215 C 3.55371 8.49609 3.29883 8.70996 3.20215 9.00879 C 3.10547 9.30762 3.18457 9.62988 3.41016 9.84961 L 4.38867 10.8105 Z M 5.8418 9.1084 L 6.5625 7.64648 L 7.2832 9.1084 L 8.89453 9.34277 L 7.72852 10.4824 L 8.00391 12.0879 L 6.5625 11.332 L 5.12109 12.0908 L 5.39648 10.4854 L 4.23047 9.3457 L 5.8418 9.1084 Z M 11.7188 1.875 L 10.3125 1.875 L 10.3125 0.234375 C 10.3125 0.105469 10.207 0 10.0781 0 L 9.60938 0 C 9.48047 0 9.375 0.105469 9.375 0.234375 L 9.375 1.875 L 3.75 1.875 L 3.75 0.234375 C 3.75 0.105469 3.64453 0 3.51562 0 L 3.04688 0 C 2.91797 0 2.8125 0.105469 2.8125 0.234375 L 2.8125 1.875 L 1.40625 1.875 C 0.629883 1.875 0 2.50488 0 3.28125 L 0 13.5938 C 0 14.3701 0.629883 15 1.40625 15 L 11.7188 15 C 12.4951 15 13.125 14.3701 13.125 13.5938 L 13.125 3.28125 C 13.125 2.50488 12.4951 1.875 11.7188 1.875 Z M 12.1875 13.5938 C 12.1875 13.8516 11.9766 14.0625 11.7188 14.0625 L 1.40625 14.0625 C 1.14844 14.0625 0.9375 13.8516 0.9375 13.5938 L 0.9375 5.625 L 12.1875 5.625 L 12.1875 13.5938 Z M 12.1875 4.6875 L 0.9375 4.6875 L 0.9375 3.28125 C 0.9375 3.02344 1.14844 2.8125 1.40625 2.8125 L 11.7188 2.8125 C 11.9766 2.8125 12.1875 3.02344 12.1875 3.28125 L 12.1875 4.6875 Z" stroke-linecap="round" />
</g>
</svg>